# xmcd CD database file
#
# Track frame offsets:
#	150
#	19128
#	39383
#	58340
#	78655
#	97945
#	121623
#	142023
#	158513
#	177483
#	194318
#	212643
#
# Disc length: 3053 seconds
#
# Revision: 2
# Processed by: cddbd v1.5.2PL0 Copyright (c) Steve Scherf et al.
# Submitted via: CDex 1.70beta2
#
DISCID=9e0beb0c
DTITLE=Tommy Nilsson - Follow The Road
DYEAR=1996
DGENRE=AOR
TTITLE0=Looking Through The Eyes Of A Child
TTITLE1=Don´t Walk Away
TTITLE2=Miracle
TTITLE3=Too Many Expectations
TTITLE4=Stranded In The Shadow
TTITLE5=Peace In Our Time
TTITLE6=Cathy
TTITLE7=Your Love
TTITLE8=The Power Within
TTITLE9=I Won´t Give It Up
TTITLE10=There´s A River
TTITLE11=Don´t Break It (Bonus Tracks)
EXTD=YEAR: 1996
EXTT0=
EXTT1=
EXTT2=
EXTT3=
EXTT4=
EXTT5=
EXTT6=
EXTT7=
EXTT8=
EXTT9=
EXTT10=
EXTT11=
PLAYORDER=
